<svg xmlns="http://www.w3.org/2000/svg" viewBox="0 0 500 500"><g id="freepik--Picture--inject-203"><g style="opacity:0.30000000000000004"><rect x="349" y="80.47" width="103" height="135.27" style="fill:none;stroke:#000;stroke-miterlimit:10"></rect><rect x="367.9" y="105.29" width="65.2" height="85.63" style="fill:none;stroke:#000;stroke-miterlimit:10"></rect></g></g><g id="freepik--Test--inject-203"><rect x="52.17" y="65.31" width="272.7" height="242.74" style="fill:#263238;stroke:#263238;stroke-miterlimit:10"></rect><rect x="47" y="59.4" width="272.7" height="242.74" style="fill:#fff;stroke:#263238;stroke-linecap:round;stroke-linejoin:round"></rect><rect x="266.6" y="143.81" width="13.56" height="13.56" transform="translate(546.76 301.17) rotate(180)" style="fill:#fff;stroke:#263238;stroke-linecap:round;stroke-linejoin:round"></rect><rect x="284.35" y="143.81" width="13.56" height="13.56" transform="translate(582.26 301.17) rotate(180)" style="fill:#fff;stroke:#263238;stroke-linecap:round;stroke-linejoin:round"></rect><line x1="261.18" y1="151.4" x2="192.29" y2="151.4" style="fill:#fff;stroke:#263238;stroke-linecap:round;stroke-linejoin:round"></line><rect x="266.6" y="175.81" width="13.56" height="13.56" transform="translate(546.76 365.18) rotate(180)" style="fill:#fff;stroke:#263238;stroke-linecap:round;stroke-linejoin:round"></rect><rect x="284.35" y="175.81" width="13.56" height="13.56" transform="translate(582.26 365.18) rotate(180)" style="fill:#fff;stroke:#263238;stroke-linecap:round;stroke-linejoin:round"></rect><line x1="261.18" y1="183.4" x2="192.29" y2="183.4" style="fill:#fff;stroke:#263238;stroke-linecap:round;stroke-linejoin:round"></line><rect x="266.6" y="207.81" width="13.56" height="13.56" transform="translate(546.76 429.19) rotate(180)" style="fill:#fff;stroke:#263238;stroke-linecap:round;stroke-linejoin:round"></rect><rect x="284.35" y="207.81" width="13.56" height="13.56" transform="translate(582.26 429.19) rotate(180)" style="fill:#fff;stroke:#263238;stroke-linecap:round;stroke-linejoin:round"></rect><line x1="261.18" y1="215.41" x2="192.29" y2="215.41" style="fill:#fff;stroke:#263238;stroke-linecap:round;stroke-linejoin:round"></line><rect x="136.96" y="143.81" width="13.56" height="13.56" transform="translate(287.48 301.17) rotate(180)" style="fill:#fff;stroke:#263238;stroke-linecap:round;stroke-linejoin:round"></rect><rect x="154.71" y="143.81" width="13.56" height="13.56" transform="translate(322.99 301.17) rotate(180)" style="fill:#fff;stroke:#263238;stroke-linecap:round;stroke-linejoin:round"></rect><line x1="131.54" y1="151.4" x2="62.65" y2="151.4" style="fill:#fff;stroke:#263238;stroke-linecap:round;stroke-linejoin:round"></line><rect x="136.96" y="175.81" width="13.56" height="13.56" transform="translate(287.48 365.18) rotate(180)" style="fill:#fff;stroke:#263238;stroke-linecap:round;stroke-linejoin:round"></rect><rect x="154.71" y="175.81" width="13.56" height="13.56" transform="translate(322.99 365.18) rotate(180)" style="fill:#fff;stroke:#263238;stroke-linecap:round;stroke-linejoin:round"></rect><line x1="131.54" y1="183.4" x2="62.65" y2="183.4" style="fill:#fff;stroke:#263238;stroke-linecap:round;stroke-linejoin:round"></line><rect x="136.96" y="207.81" width="13.56" height="13.56" transform="translate(287.48 429.19) rotate(180)" style="fill:#fff;stroke:#263238;stroke-linecap:round;stroke-linejoin:round"></rect><rect x="154.71" y="207.81" width="13.56" height="13.56" transform="translate(322.99 429.19) rotate(180)" style="fill:#fff;stroke:#263238;stroke-linecap:round;stroke-linejoin:round"></rect><line x1="131.54" y1="215.41" x2="62.65" y2="215.41" style="fill:#fff;stroke:#263238;stroke-linecap:round;stroke-linejoin:round"></line><rect x="66.93" y="268" width="14.94" height="14.94" style="fill:#fff;stroke:#263238;stroke-linecap:round;stroke-linejoin:round"></rect><rect x="127.9" y="268" width="14.94" height="14.94" style="fill:#fff;stroke:#263238;stroke-linecap:round;stroke-linejoin:round"></rect><rect x="191.29" y="268" width="14.94" height="14.94" style="fill:#fff;stroke:#263238;stroke-linecap:round;stroke-linejoin:round"></rect><polyline points="159.17 148.34 161.48 152.98 172.67 142.17" style="fill:none;stroke:#263238;stroke-linecap:round;stroke-linejoin:round;stroke-width:2px"></polyline><polyline points="159.17 179.99 161.48 184.62 172.67 173.81" style="fill:none;stroke:#263238;stroke-linecap:round;stroke-linejoin:round;stroke-width:2px"></polyline><polyline points="139.87 213.18 142.19 217.81 153.38 207" style="fill:none;stroke:#263238;stroke-linecap:round;stroke-linejoin:round;stroke-width:2px"></polyline><polyline points="288.06 147.96 290.37 152.59 301.56 141.78" style="fill:none;stroke:#263238;stroke-linecap:round;stroke-linejoin:round;stroke-width:2px"></polyline><polyline points="269.38 180.37 271.69 185 282.88 174.2" style="fill:none;stroke:#263238;stroke-linecap:round;stroke-linejoin:round;stroke-width:2px"></polyline><polyline points="269.38 212.89 271.69 217.52 282.88 206.72" style="fill:none;stroke:#263238;stroke-linecap:round;stroke-linejoin:round;stroke-width:2px"></polyline><rect x="47" y="59.4" width="272.7" height="37.92" style="fill:#191D31;stroke:#263238;stroke-linecap:round;stroke-linejoin:round"></rect><rect x="309.43" y="59.4" width="10.27" height="242.74" style="fill:#dbdbdb;stroke:#263238;stroke-linecap:round;stroke-linejoin:round"></rect><rect x="309.43" y="95.88" width="10.27" height="46.85" style="fill:#949494;stroke:#263238;stroke-linecap:round;stroke-linejoin:round"></rect><rect x="47" y="59.4" width="272.7" height="18.44" style="fill:#dbdbdb;stroke:#263238;stroke-linecap:round;stroke-linejoin:round"></rect><rect x="60.83" y="64.77" width="107.54" height="7.68" style="fill:#fff;stroke:#263238;stroke-linecap:round;stroke-linejoin:round"></rect><line x1="303.6" y1="65.13" x2="313.04" y2="65.13" style="fill:none;stroke:#263238;stroke-linecap:round;stroke-linejoin:round"></line><line x1="303.6" y1="69.12" x2="313.04" y2="69.12" style="fill:none;stroke:#263238;stroke-linecap:round;stroke-linejoin:round"></line><line x1="303.6" y1="73.12" x2="313.04" y2="73.12" style="fill:none;stroke:#263238;stroke-linecap:round;stroke-linejoin:round"></line><path d="M142.26,112.66c0-2.37,1.25-3.72,3.53-3.72s3.52,1.35,3.52,3.72v7.68c0,2.36-1.24,3.71-3.52,3.71s-3.53-1.35-3.53-3.71Zm2.33,7.83c0,1.05.46,1.45,1.2,1.45s1.2-.4,1.2-1.45v-8c0-1.06-.46-1.46-1.2-1.46s-1.2.4-1.2,1.46Z" style="fill:#263238"></path><path d="M152.88,113.19v10.69h-2.09V109.11h2.91l2.39,8.84v-8.84h2.07v14.77h-2.39Z" style="fill:#263238"></path><path d="M159.82,109.11h2.33v12.66H166v2.11h-6.15Z" style="fill:#263238"></path><path d="M167,109.11h2.32v14.77H167Z" style="fill:#263238"></path><path d="M173.06,113.19v10.69H171V109.11h2.91l2.39,8.84v-8.84h2.06v14.77H176Z" style="fill:#263238"></path><path d="M182.32,115.34h3.19v2.11h-3.19v4.32h4v2.11H180V109.11h6.33v2.11h-4Z" style="fill:#263238"></path><path d="M190.37,109.11h7.17v2.11h-2.43v12.66h-2.32V111.22h-2.42Z" style="fill:#263238"></path><path d="M200.88,115.34h3.18v2.11h-3.18v4.32h4v2.11h-6.33V109.11h6.33v2.11h-4Z" style="fill:#263238"></path><path d="M209.44,108.94c2.26,0,3.42,1.35,3.42,3.72v.46h-2.19v-.61c0-1.06-.42-1.46-1.16-1.46s-1.16.4-1.16,1.46c0,3,4.53,3.61,4.53,7.83,0,2.36-1.18,3.71-3.46,3.71S206,122.7,206,120.34v-.91h2.2v1.06c0,1.05.46,1.43,1.2,1.43s1.2-.38,1.2-1.43c0-3-4.53-3.61-4.53-7.83C206,110.29,207.19,108.94,209.44,108.94Z" style="fill:#263238"></path><path d="M213.54,109.11h7.17v2.11h-2.42v12.66H216V111.22h-2.43Z" style="fill:#263238"></path><path d="M78.56,264.4H76.21l-.4-2.68H73l-.4,2.68H70.43l2.36-14.77h3.4Zm-5.3-4.69H75.5l-1.12-7.47Z" style="fill:#263238"></path><path d="M138.55,253v.52c0,1.52-.46,2.49-1.5,3,1.25.48,1.73,1.6,1.73,3.16v1.21c0,2.28-1.2,3.5-3.52,3.5h-3.65V249.63h3.5C137.52,249.63,138.55,250.75,138.55,253Zm-4.62-1.29v3.9h.91c.86,0,1.39-.38,1.39-1.56v-.82c0-1.06-.36-1.52-1.18-1.52Zm0,6v4.54h1.33c.78,0,1.2-.36,1.2-1.46v-1.28c0-1.38-.44-1.8-1.49-1.8Z" style="fill:#263238"></path><path d="M202.54,258.89v2c0,2.37-1.18,3.72-3.46,3.72s-3.46-1.35-3.46-3.72v-7.68c0-2.36,1.18-3.71,3.46-3.71s3.46,1.35,3.46,3.71v1.44h-2.19V253c0-1.06-.47-1.46-1.21-1.46s-1.2.4-1.2,1.46v8c0,1.06.47,1.44,1.2,1.44s1.21-.38,1.21-1.44v-2.11Z" style="fill:#263238"></path><line x1="63.7" y1="241.76" x2="240.95" y2="241.76" style="fill:#fff;stroke:#263238;stroke-linecap:round;stroke-linejoin:round"></line></g><g id="freepik--Graphics--inject-203"><rect x="354.84" y="41.02" width="19.57" height="19.57" transform="translate(729.24 101.61) rotate(180)" style="fill:none;stroke:#000;stroke-linecap:round;stroke-linejoin:round;opacity:0.30000000000000004"></rect><rect x="380.46" y="41.02" width="19.57" height="19.57" transform="translate(780.49 101.61) rotate(180)" style="fill:none;stroke:#000;stroke-linecap:round;stroke-linejoin:round;opacity:0.30000000000000004"></rect><polyline points="359.04 48.76 362.38 55.44 372.2 44.63" style="fill:none;stroke:#000;stroke-linecap:round;stroke-linejoin:round;stroke-width:2px;opacity:0.30000000000000004"></polyline><rect x="58.57" y="328.14" width="19.57" height="19.57" transform="translate(136.72 675.85) rotate(180)" style="fill:none;stroke:#000;stroke-linecap:round;stroke-linejoin:round;opacity:0.30000000000000004"></rect><rect x="84.19" y="328.14" width="19.57" height="19.57" transform="translate(187.96 675.85) rotate(180)" style="fill:none;stroke:#000;stroke-linecap:round;stroke-linejoin:round;opacity:0.30000000000000004"></rect><polyline points="62.77 335.88 66.11 342.56 75.93 331.75" style="fill:none;stroke:#000;stroke-linecap:round;stroke-linejoin:round;stroke-width:2px;opacity:0.30000000000000004"></polyline><rect x="151.29" y="328.14" width="19.57" height="19.57" transform="translate(322.15 675.85) rotate(180)" style="fill:none;stroke:#000;stroke-linecap:round;stroke-linejoin:round;opacity:0.30000000000000004"></rect><rect x="176.91" y="328.14" width="19.57" height="19.57" transform="translate(373.4 675.85) rotate(180)" style="fill:none;stroke:#000;stroke-linecap:round;stroke-linejoin:round;opacity:0.30000000000000004"></rect><polyline points="155.49 335.88 158.83 342.56 168.65 331.75" style="fill:none;stroke:#000;stroke-linecap:round;stroke-linejoin:round;stroke-width:2px;opacity:0.30000000000000004"></polyline><g style="opacity:0.30000000000000004"><circle cx="179.64" cy="38.41" r="12.56" transform="translate(-3.83 29.15) rotate(-9.18)" style="fill:none;stroke:#000;stroke-linecap:round;stroke-linejoin:round"></circle><polyline points="183.15 42.95 179.64 38.41 179.64 31.26" style="fill:none;stroke:#000;stroke-linecap:round;stroke-linejoin:round"></polyline></g><g style="opacity:0.30000000000000004"><path d="M414.08,279.32h-1.86l-.32-2.12h-2.26l-.32,2.12h-1.69l1.88-11.71h2.69Zm-4.2-3.71h1.77l-.89-5.93Z"></path><path d="M440.27,270.3v.42a2.29,2.29,0,0,1-1.18,2.36,2.38,2.38,0,0,1,1.37,2.51v1a2.49,2.49,0,0,1-2.8,2.77h-2.89V267.61h2.78C439.45,267.61,440.27,268.49,440.27,270.3Zm-3.66-1v3.1h.72c.68,0,1.1-.3,1.1-1.24v-.65c0-.84-.28-1.21-.94-1.21Zm0,4.77v3.6h1.05c.62,0,1-.28,1-1.15v-1c0-1.08-.36-1.42-1.19-1.42Z"></path><path d="M466.79,275v1.55c0,1.88-.93,2.95-2.74,2.95s-2.75-1.07-2.75-2.95v-6.09c0-1.88.94-2.95,2.75-2.95s2.74,1.07,2.74,2.95v1.14h-1.74V270.3c0-.84-.37-1.15-.95-1.15s-1,.31-1,1.15v6.33c0,.84.37,1.14,1,1.14s.95-.3.95-1.14V275Z"></path><rect x="403.51" y="285.71" width="14.23" height="14.23" style="fill:none;stroke:#000;stroke-miterlimit:10"></rect><rect x="429.98" y="285.71" width="14.23" height="14.23" style="fill:none;stroke:#000;stroke-miterlimit:10"></rect><rect x="456.45" y="285.71" width="14.23" height="14.23" style="fill:none;stroke:#000;stroke-miterlimit:10"></rect></g></g></svg>