<svg xmlns="http://www.w3.org/2000/svg" viewBox="0 0 500 500"><g id="freepik--Gears--inject-78"><path d="M268.68,149.28l6-2.76-1.28-7.25-6.67-.52a29.33,29.33,0,0,0-3.33-6.32l3.44-5.8-5.21-5.21-5.86,3.47a29.13,29.13,0,0,0-11.17-4.56L243,113.65h-7.37l-1.69,6.72a29.14,29.14,0,0,0-6.63,2.11L222,117.92l-6,4.23,2.49,6.51a30.13,30.13,0,0,0-4.24,5.49l-6.93-.71-2.52,6.92,5.74,3.9a29.16,29.16,0,0,0-.41,4.89c0,.7,0,1.39.08,2.07l-6,3.37,1.91,7.12,6.84-.09a29.38,29.38,0,0,0,3.76,6l-3,6.13,5.65,4.74,5.47-3.92a29.11,29.11,0,0,0,6.59,2.78l1.09,6.6,7.34.64,2.22-6.25a29,29,0,0,0,7.06-1.53l4.63,4.71,6.38-3.68-1.75-6.35a29.56,29.56,0,0,0,4.9-5.34l6.49,1.19,3.11-6.68-5.09-4.19A29.29,29.29,0,0,0,268.68,149.28Zm-10.9-.13a18.4,18.4,0,1,1-18.4-18.4A18.4,18.4,0,0,1,257.78,149.15Z" style="fill:#263238"></path><path d="M268.68,145.56l6-2.75-1.28-7.26-6.67-.52a29,29,0,0,0-3.33-6.31l3.44-5.81-5.21-5.21-5.86,3.48a29,29,0,0,0-11.17-4.56L243,109.93h-7.37l-1.69,6.73a29.12,29.12,0,0,0-6.63,2.1L222,114.21l-6,4.22,2.49,6.52a29.46,29.46,0,0,0-4.24,5.49l-6.93-.72-2.52,6.93,5.74,3.89a29.34,29.34,0,0,0-.41,4.89c0,.7,0,1.39.08,2.08l-6,3.37L206,158l6.84-.09a29.31,29.31,0,0,0,3.76,6l-3,6.14,5.65,4.73,5.47-3.92a28.69,28.69,0,0,0,6.59,2.79l1.09,6.59,7.34.65,2.22-6.25a29,29,0,0,0,7.06-1.53l4.63,4.7,6.38-3.68-1.75-6.35a29.23,29.23,0,0,0,4.9-5.34l6.49,1.2,3.11-6.68-5.09-4.2A29.16,29.16,0,0,0,268.68,145.56Zm-10.9-.13A18.4,18.4,0,1,1,239.38,127,18.4,18.4,0,0,1,257.78,145.43Z" style="fill:#191D31;stroke:#263238;stroke-linecap:round;stroke-linejoin:round;stroke-width:1.0833700000000002px"></path><path d="M257.87,251.39l10.75-4.89-2.27-12.9-11.86-.93a51.93,51.93,0,0,0-5.93-11.23l6.11-10.32-9.26-9.26L235,208a51.78,51.78,0,0,0-19.86-8.1l-3-11.89H199l-3,12a51.7,51.7,0,0,0-11.78,3.74l-9.36-8.1-10.73,7.51,4.42,11.59A52.17,52.17,0,0,0,161,224.5l-12.33-1.27-4.48,12.31,10.21,6.93a51.94,51.94,0,0,0-.74,8.7c0,1.24.06,2.46.15,3.68l-10.75,6,3.39,12.65,12.17-.16A51.94,51.94,0,0,0,165.32,284l-5.25,10.9,10,8.42,9.72-7a52.36,52.36,0,0,0,11.72,4.95L193.5,313l13.05,1.14L210.49,303a51.87,51.87,0,0,0,12.56-2.72l8.23,8.37,11.35-6.55-3.12-11.29a52.09,52.09,0,0,0,8.72-9.5l11.53,2.13,5.53-11.87-9-7.47A51.56,51.56,0,0,0,257.87,251.39Zm-19.37-.22a32.71,32.71,0,1,1-32.71-32.71A32.72,32.72,0,0,1,238.5,251.17Z" style="fill:#263238"></path><path d="M257.87,246.36l10.75-4.9-2.27-12.9-11.86-.92a51.93,51.93,0,0,0-5.93-11.23l6.11-10.32-9.26-9.27L235,203a51.8,51.8,0,0,0-19.86-8.11l-3-11.88H199l-3,12a51.7,51.7,0,0,0-11.78,3.74l-9.36-8.1-10.73,7.51,4.42,11.59a52.17,52.17,0,0,0-7.53,9.76L148.7,218.2l-4.48,12.31,10.21,6.93a51.91,51.91,0,0,0-.74,8.69c0,1.24.06,2.47.15,3.69l-10.75,6,3.39,12.66,12.17-.16a51.6,51.6,0,0,0,6.67,10.62l-5.25,10.91,10,8.42,9.72-7a51.87,51.87,0,0,0,11.72,4.94L193.5,308l13.05,1.15L210.49,298a51.87,51.87,0,0,0,12.56-2.72l8.23,8.37,11.35-6.55-3.12-11.29a52.09,52.09,0,0,0,8.72-9.5l11.53,2.13,5.53-11.88-9-7.46A51.56,51.56,0,0,0,257.87,246.36Zm-19.37-.23a32.71,32.71,0,1,1-32.71-32.71A32.71,32.71,0,0,1,238.5,246.13Z" style="fill:#191D31;stroke:#263238;stroke-linecap:round;stroke-linejoin:round;stroke-width:1.0833700000000002px"></path><path d="M376.41,279.91l10.75-4.9-2.28-12.9L373,261.19A52.41,52.41,0,0,0,367.09,250l6.11-10.33-9.26-9.26-10.4,6.18a51.84,51.84,0,0,0-19.87-8.11l-3-11.88h-13.1l-3,12a51.54,51.54,0,0,0-11.78,3.74l-9.37-8.11-10.73,7.52,4.42,11.59a52.54,52.54,0,0,0-7.52,9.76l-12.34-1.27-4.48,12.31L273,271a53,53,0,0,0-.73,8.69c0,1.24.06,2.47.14,3.68l-10.74,6L265,302l12.16-.16a52.07,52.07,0,0,0,6.68,10.62l-5.25,10.91,10,8.42,9.73-7a51.26,51.26,0,0,0,11.72,5l2,11.73,13,1.14,3.93-11.1a52.13,52.13,0,0,0,12.56-2.72l8.24,8.36,11.34-6.55-3.11-11.28a52.45,52.45,0,0,0,8.72-9.5L378.29,312l5.54-11.87-9-7.47A52.38,52.38,0,0,0,376.41,279.91ZM357,279.68A32.71,32.71,0,1,1,324.32,247,32.7,32.7,0,0,1,357,279.68Z" style="fill:#263238"></path><path d="M376.41,274.88l10.75-4.9-2.28-12.9L373,256.16a52.48,52.48,0,0,0-5.94-11.24l6.11-10.32-9.26-9.26-10.4,6.18a51.84,51.84,0,0,0-19.87-8.11l-3-11.88h-13.1l-3,12a51.54,51.54,0,0,0-11.78,3.74l-9.37-8.11-10.73,7.52,4.42,11.59a52.21,52.21,0,0,0-7.52,9.76l-12.34-1.27L262.75,259,273,266a53.1,53.1,0,0,0-.73,8.7c0,1.24.06,2.46.14,3.68l-10.74,6L265,297l12.16-.15a52.34,52.34,0,0,0,6.68,10.62l-5.25,10.91,10,8.42,9.73-7a52.16,52.16,0,0,0,11.72,4.95l2,11.73,13,1.14L329,326.52a51.66,51.66,0,0,0,12.56-2.72l8.24,8.37,11.34-6.55-3.11-11.28a52.78,52.78,0,0,0,8.72-9.5L378.29,307l5.54-11.87-9-7.47A52.44,52.44,0,0,0,376.41,274.88ZM357,274.65a32.71,32.71,0,1,1-32.71-32.71A32.7,32.7,0,0,1,357,274.65Z" style="fill:#191D31;stroke:#263238;stroke-linecap:round;stroke-linejoin:round;stroke-width:1.0833700000000002px"></path></g></svg>