<?xml version="1.0" standalone="no"?><svg xmlns:xlink="http://www.w3.org/1999/xlink" xmlns="http://www.w3.org/2000/svg" viewBox="0 0 1000 750" preserveAspectRatio="xMaxYMax slice"><g transform="scale(1.3812154696132597)"><rect x="0" y="0" width="724" height="543" fill="#CB9BFA"/><rect x="0" y="0" width="181" height="181" fill="#c89cf7"/><polygon points="0,0 181,181 0,181" fill="#f2e7fe"/><rect x="181" y="0" width="181" height="181" fill="#CB9BFA"/><rect x="181" y="0" width="90.5" height="90.5" fill="#77c1b5"/><path d="M 181 90.5 A 90.5 90.5 0 0 1 271.5 0 L 271.5 22.625 A 67.875 67.875 0 0 0 203.625 90.5" fill="#90b5ca"/><rect x="271.5" y="0" width="90.5" height="90.5" fill="#d6b1fb"/><path d="M 271.5 0 A 90.5 90.5 0 0 1 362 90.5 L 339.375 90.5 A 67.875 67.875 0 0 0 271.5 22.625" fill="#fbf6ff"/><rect x="181" y="90.5" width="90.5" height="90.5" fill="#a7abdd"/><path d="M 181 90.5 A 90.5 90.5 0 0 0 271.5 181 L 271.5 158.375 A 67.875 67.875 0 0 1 203.625 90.5" fill="#dbb9fb"/><rect x="271.5" y="90.5" width="90.5" height="90.5" fill="#fcf9ff"/><path d="M 271.5 181 A 90.5 90.5 0 0 0 362 90.5 L 339.375 90.5 A 67.875 67.875 0 0 1 271.5 158.375" fill="#86bac2"/><rect x="362" y="0" width="181" height="181" fill="#CB9BFA"/><rect x="362" y="0" width="90.5" height="90.5" fill="#c39ef4"/><path d="M 362 90.5 A 90.5 90.5 0 0 1 452.5 0 L 452.5 22.625 A 67.875 67.875 0 0 0 384.625 90.5" fill="#d9b5fb"/><rect x="452.5" y="0" width="90.5" height="90.5" fill="#cd9ffa"/><path d="M 452.5 0 A 90.5 90.5 0 0 1 543 90.5 L 520.375 90.5 A 67.875 67.875 0 0 0 452.5 22.625" fill="#e1c6fc"/><rect x="362" y="90.5" width="90.5" height="90.5" fill="#d3abfb"/><path d="M 362 90.5 A 90.5 90.5 0 0 0 452.5 181 L 452.5 158.375 A 67.875 67.875 0 0 1 384.625 90.5" fill="#c89cf8"/><rect x="452.5" y="90.5" width="90.5" height="90.5" fill="#6ec5ae"/><path d="M 452.5 181 A 90.5 90.5 0 0 0 543 90.5 L 520.375 90.5 A 67.875 67.875 0 0 1 452.5 158.375" fill="#7bbfb8"/><rect x="543" y="0" width="181" height="181" fill="#CB9BFA"/><rect x="543" y="0" width="90.5" height="90.5" fill="#a6abdc"/><path d="M 543 0 A 90.5 90.5 0 0 0 633.5 90.5 L 633.5 0" fill="#d2a8fb"/><rect x="633.5" y="0" width="90.5" height="90.5" fill="#f5ebfe"/><path d="M 633.5 90.5 A 90.5 90.5 0 0 0 724 0 L 633.5 0" fill="#75c1b4"/><rect x="543" y="90.5" width="90.5" height="90.5" fill="#80bcbd"/><path d="M 543 181 A 90.5 90.5 0 0 1  633.5 90.5 L 633.5 181" fill="#e8d3fd"/><rect x="633.5" y="90.5" width="90.5" height="90.5" fill="#88b9c3"/><path d="M 633.5 90.5 A 90.5 90.5 0 0 1 724 181 L 633.5 181" fill="#baa3ec"/><rect x="0" y="181" width="181" height="181" fill="#93b4cc"/><rect x="0" y="181" width="181" height="181" fill="#d3abfb"/><rect x="181" y="181" width="181" height="181" fill="#99b1d1"/><polygon points="181,181 362,181 181,362" fill="#f8f1fe"/><rect x="362" y="181" width="181" height="181" fill="#CB9BFA"/><rect x="362" y="181" width="90.5" height="90.5" fill="#fefdff"/><path d="M 362 181 A 90.5 90.5 0 0 1 452.5 271.5 L 362 271.5" fill="#b6a4e9"/><rect x="452.5" y="181" width="90.5" height="90.5" fill="#96b2cf"/><path d="M 452.5 271.5 A 90.5 90.5 0 0 1  543 181 L 543 271.5" fill="#95b3ce"/><rect x="362" y="271.5" width="90.5" height="90.5" fill="#fcfaff"/><path d="M 362 362 A 90.5 90.5 0 0 0 452.5 271.5 L 362 271.5" fill="#c99cf9"/><rect x="452.5" y="271.5" width="90.5" height="90.5" fill="#d1a7fb"/><path d="M 452.5 271.5 A 90.5 90.5 0 0 0 543 362 L 543 271.5" fill="#debffc"/><rect x="543" y="181" width="181" height="181" fill="#e9d5fd"/><path d="M 543 362 A 181 181 0 0 1  724 181 L 543 362 A 181 181 0 0 0 724 181" fill="#f1e4fe"/><rect x="0" y="362" width="181" height="181" fill="#CB9BFA"/><rect x="0" y="362" width="90.5" height="90.5" fill="#f0e3fe"/><path d="M 0 452.5 A 90.5 90.5 0 0 1 90.5 362 L 90.5 384.625 A 67.875 67.875 0 0 0 22.625 452.5" fill="#76c1b5"/><rect x="90.5" y="362" width="90.5" height="90.5" fill="#77c0b5"/><path d="M 90.5 362 A 90.5 90.5 0 0 1 181 452.5 L 158.375 452.5 A 67.875 67.875 0 0 0 90.5 384.625" fill="#99b1d1"/><rect x="0" y="452.5" width="90.5" height="90.5" fill="#b5a5e8"/><path d="M 0 452.5 A 90.5 90.5 0 0 0 90.5 543 L 90.5 520.375 A 67.875 67.875 0 0 1 22.625 452.5" fill="#6cc5ac"/><rect x="90.5" y="452.5" width="90.5" height="90.5" fill="#91b5cb"/><path d="M 90.5 543 A 90.5 90.5 0 0 0 181 452.5 L 158.375 452.5 A 67.875 67.875 0 0 1 90.5 520.375" fill="#b7a4ea"/><rect x="181" y="362" width="181" height="181" fill="#CB9BFA"/><rect x="181" y="362" width="90.5" height="90.5" fill="#8bb7c6"/><path d="M 181 362 A 90.5 90.5 0 0 0 271.5 452.5 L 271.5 362" fill="#83bbbf"/><rect x="271.5" y="362" width="90.5" height="90.5" fill="#d9b6fb"/><path d="M 271.5 452.5 A 90.5 90.5 0 0 0 362 362 L 271.5 362" fill="#91b5cb"/><rect x="181" y="452.5" width="90.5" height="90.5" fill="#dab7fb"/><path d="M 181 543 A 90.5 90.5 0 0 1  271.5 452.5 L 271.5 543" fill="#67c7a9"/><rect x="271.5" y="452.5" width="90.5" height="90.5" fill="#e0c3fc"/><path d="M 271.5 452.5 A 90.5 90.5 0 0 1 362 543 L 271.5 543" fill="#afa8e3"/><rect x="362" y="362" width="181" height="181" fill="#a2add8"/><polygon points="543,362 543,543 362,543" fill="#dcbbfc"/><rect x="543" y="362" width="181" height="181" fill="#CB9BFA"/><rect x="543" y="362" width="90.5" height="90.5" fill="#c59ef5"/><path d="M 543 452.5 A 90.5 90.5 0 0 0 633.5 362 L 543 362" fill="#f7effe"/><rect x="633.5" y="362" width="90.5" height="90.5" fill="#e3cafc"/><path d="M 633.5 362 A 90.5 90.5 0 0 0 724 452.5 L 724 362" fill="#ebd8fd"/><rect x="543" y="452.5" width="90.5" height="90.5" fill="#81bcbd"/><path d="M 543 452.5 A 90.5 90.5 0 0 1 633.5 543 L 543 543" fill="#61caa4"/><rect x="633.5" y="452.5" width="90.5" height="90.5" fill="#f1e4fe"/><path d="M 633.5 543 A 90.5 90.5 0 0 1  724 452.5 L 724 543" fill="#d6affb"/></g></svg>