<?xml version="1.0" standalone="no"?><svg xmlns:xlink="http://www.w3.org/1999/xlink" xmlns="http://www.w3.org/2000/svg" viewBox="0 0 1000 600" preserveAspectRatio="xMaxYMax slice"><g transform="scale(1.1049723756906078)"><rect x="0" y="0" width="905" height="543" fill="#ffffff"/><rect x="0" y="0" width="181" height="181" fill="#89daba"/><polygon points="0,0 181,181 0,181" fill="#8edbbd"/><rect x="181" y="0" width="181" height="181" fill="#b4e8d3"/><rect x="181" y="0" width="181" height="181" fill="#c0ebda"/><rect x="362" y="0" width="181" height="181" fill="#dab7fb"/><path d="M 362 0 A 181 181 0 0 1  543 181 L 362 0 A 181 181 0 0 0 543 181" fill="#cc9dfa"/><rect x="543" y="0" width="181" height="181" fill="#e0c4fc"/><rect x="543" y="0" width="181" height="181" fill="#b3e7d2"/><rect x="724" y="0" width="181" height="181" fill="#e7f7f1"/><rect x="724" y="0" width="181" height="181" fill="#ebf9f3"/><rect x="0" y="181" width="181" height="181" fill="#f5ecfe"/><rect x="0" y="181" width="181" height="181" fill="#cb9cfa"/><rect x="181" y="181" width="181" height="181" fill="#bdead8"/><rect x="181" y="181" width="181" height="181" fill="#f0faf6"/><rect x="362" y="181" width="181" height="181" fill="#dbbafc"/><rect x="362" y="181" width="181" height="181" fill="#e9d4fd"/><rect x="543" y="181" width="181" height="181" fill="#dec0fc"/><rect x="543" y="181" width="181" height="181" fill="#e4cafc"/><rect x="724" y="181" width="181" height="181" fill="#f8f2fe"/><polygon points="724,181 905,362 724,362" fill="#90dcbe"/><rect x="0" y="362" width="181" height="181" fill="#e4cafc"/><rect x="0" y="362" width="181" height="181" fill="#ecdbfd"/><rect x="181" y="362" width="181" height="181" fill="#e9d5fd"/><rect x="181" y="362" width="181" height="181" fill="#f7fcfa"/><rect x="362" y="362" width="181" height="181" fill="#7dd6b3"/><path d="M 362 543 A 181 181 0 0 1  543 362 L 543 543" fill="#f1e4fe"/><rect x="543" y="362" width="181" height="181" fill="#efdffd"/><rect x="543" y="362" width="181" height="181" fill="#bae9d7"/><rect x="724" y="362" width="181" height="181" fill="#f5ecfe"/><path d="M 724 543 A 181 181 0 0 1  905 362 L 724 543 A 181 181 0 0 0 905 362" fill="#cbefe0"/></g></svg>